<svg width="200" height="200" viewBox="0 0 200 200" fill="none" xmlns="http://www.w3.org/2000/svg">
<g clip-path="url(#clip0_446_78)">
<path d="M6.13082 80.1572H5.13082V81.1572V198.981H0.999969V76.0264H73.8889V198.981H69.758V81.1572V80.1572H68.758H6.13082Z" fill="#656565" stroke="#161616" stroke-width="2"/>
<path d="M62.3874 5.14891H61.3874V6.14891V70.841H57.2565V1.01807H133.27V96.9034V97.9034H134.27H173.9V198.981H169.768V103.034V102.034H168.768H118.643H117.643V103.034V198.981H113.512V97.9034H128.14H129.14V96.9034V6.14891V5.14891H128.14H62.3874Z" fill="#656565" stroke="#161616" stroke-width="2"/>
<path d="M10.316 92.6592V88.5283H64.5729V92.6592H10.316Z" fill="#656565" stroke="#161616" stroke-width="2"/>
<path d="M66.5717 17.6499V13.519H123.955V17.6499H66.5717Z" fill="#656565" stroke="#161616" stroke-width="2"/>
<path d="M16.6253 114.598V104.097H20.7562V114.598H16.6253Z" fill="#656565" stroke="#161616" stroke-width="2"/>
<path d="M35.3776 114.598V104.097H39.5085V114.598H35.3776Z" fill="#656565" stroke="#161616" stroke-width="2"/>
<path d="M54.1299 114.598V104.097H58.2608V114.598H54.1299Z" fill="#656565" stroke="#161616" stroke-width="2"/>
<path d="M16.6253 139.6V129.099H20.7562V139.6H16.6253Z" fill="#656565" stroke="#161616" stroke-width="2"/>
<path d="M35.3776 139.6V129.099H39.5085V139.6H35.3776Z" fill="#656565" stroke="#161616" stroke-width="2"/>
<path d="M54.1299 139.6V129.099H58.2608V139.6H54.1299Z" fill="#656565" stroke="#161616" stroke-width="2"/>
<path d="M16.6253 164.601V154.1H20.7562V164.601H16.6253Z" fill="#656565" stroke="#161616" stroke-width="2"/>
<path d="M35.3776 164.601V154.1H39.5085V164.601H35.3776Z" fill="#656565" stroke="#161616" stroke-width="2"/>
<path d="M54.1299 164.601V154.1H58.2608V164.601H54.1299Z" fill="#656565" stroke="#161616" stroke-width="2"/>
<path d="M16.6253 189.603V179.102H20.7562V189.603H16.6253Z" fill="#656565" stroke="#161616" stroke-width="2"/>
<path d="M35.3776 189.603V179.102H39.5085V189.603H35.3776Z" fill="#656565" stroke="#161616" stroke-width="2"/>
<path d="M54.1299 189.603V179.102H58.2608V189.603H54.1299Z" fill="#656565" stroke="#161616" stroke-width="2"/>
<path d="M73.8889 40.647V41.647H74.8889H115.638H115.638H116.638V40.647V31.1517V30.1517H115.638H74.8889H73.8889V31.1517V40.647ZM69.7581 45.7783V26.0205H120.769V45.7783H69.7581Z" fill="#656565" stroke="#161616" stroke-width="2"/>
<path d="M69.7596 64.59V54.0889H73.8904V64.59H69.7596Z" fill="#656565" stroke="#161616" stroke-width="2"/>
<path d="M85.3849 64.59V54.0889H89.5158V64.59H85.3849Z" fill="#656565" stroke="#161616" stroke-width="2"/>
<path d="M101.011 64.59V54.0889H105.142V64.59H101.011Z" fill="#656565" stroke="#161616" stroke-width="2"/>
<path d="M116.636 64.59V54.0889H120.767V64.59H116.636Z" fill="#656565" stroke="#161616" stroke-width="2"/>
<path d="M85.3849 86.465V75.9639H89.5158V86.465H85.3849Z" fill="#656565" stroke="#161616" stroke-width="2"/>
<path d="M101.011 86.465V75.9639H105.142V86.465H101.011Z" fill="#656565" stroke="#161616" stroke-width="2"/>
<path d="M85.3849 108.345V97.8433H89.5158V108.345H85.3849Z" fill="#656565" stroke="#161616" stroke-width="2"/>
<path d="M101.011 108.345V97.8433H105.142V108.345H101.011Z" fill="#656565" stroke="#161616" stroke-width="2"/>
<path d="M85.3849 130.223V119.722H89.5158V130.223H85.3849Z" fill="#656565" stroke="#161616" stroke-width="2"/>
<path d="M101.011 130.223V119.722H105.142V130.223H101.011Z" fill="#656565" stroke="#161616" stroke-width="2"/>
<path d="M85.3849 152.098V141.597H89.5158V152.098H85.3849Z" fill="#656565" stroke="#161616" stroke-width="2"/>
<path d="M101.011 152.098V141.597H105.142V152.098H101.011Z" fill="#656565" stroke="#161616" stroke-width="2"/>
<path d="M85.3849 173.977V163.476H89.5158V173.977H85.3849Z" fill="#656565" stroke="#161616" stroke-width="2"/>
<path d="M101.011 173.977V163.476H105.142V173.977H101.011Z" fill="#656565" stroke="#161616" stroke-width="2"/>
<path d="M85.3849 195.856V185.355H89.5158V195.856H85.3849Z" fill="#656565" stroke="#161616" stroke-width="2"/>
<path d="M101.011 195.856V185.355H105.142V195.856H101.011Z" fill="#656565" stroke="#161616" stroke-width="2"/>
<path d="M116.636 86.465V75.9639H120.767V86.465H116.636Z" fill="#656565" stroke="#161616" stroke-width="2"/>
<path d="M122.828 114.538V110.407H164.582V114.538H122.828Z" fill="#656565" stroke="#161616" stroke-width="2"/>
<path d="M129.139 198.98V122.849H133.27V198.98H129.139Z" fill="#656565" stroke="#161616" stroke-width="2"/>
<path d="M141.642 198.98V122.849H145.773V198.98H141.642Z" fill="#656565" stroke="#161616" stroke-width="2"/>
<path d="M154.141 198.98V122.849H158.272V198.98H154.141Z" fill="#656565" stroke="#161616" stroke-width="2"/>
<path d="M166.643 40.1046V10.334H170.774V35.123V37.2239L172.405 35.8991L178.719 30.7694L179.085 30.472L179.088 30.0003L179.138 22.8203L183.269 22.8495L183.254 24.977L183.239 27.0969L184.885 25.7601L198.9 14.3727L198.999 198.98L194.869 198.982L194.8 71.7814L194.8 70.7819H193.8H169.769V65.5311V64.5311H168.769H149.897H148.897V65.5311V92.7194H144.766V58.3571L153.773 51.0389L154.142 50.7388V50.2628V29.0867H158.273V45.2808V47.3818L159.904 46.0569L166.274 40.8807L166.643 40.5806V40.1046ZM150.988 58.6238L148.802 60.3999H151.618H168.768H168.769H169.769V59.3999V54.1491H193.79H194.791L194.79 53.1486L194.775 25.1475L194.774 23.048L193.144 24.3719L150.988 58.6238ZM173.9 65.6503V66.6503H174.9H193.797H194.797L194.797 65.6498L194.794 59.2795L194.793 58.28H193.794H174.9H173.9V59.28V65.6503Z" fill="#656565" stroke="#161616" stroke-width="2"/>
<path d="M182.269 111.471V100.97H186.4V111.471H182.269Z" fill="#656565" stroke="#161616" stroke-width="2"/>
<path d="M182.269 133.35V122.849H186.4V133.35H182.269Z" fill="#656565" stroke="#161616" stroke-width="2"/>
<path d="M182.269 155.225V144.724H186.4V155.225H182.269Z" fill="#656565" stroke="#161616" stroke-width="2"/>
<path d="M182.269 177.105V166.603H186.4V177.105H182.269Z" fill="#656565" stroke="#161616" stroke-width="2"/>
<path d="M182.269 198.979V188.478H186.4V198.979H182.269Z" fill="#656565" stroke="#161616" stroke-width="2"/>
<path d="M182.269 89.5929V79.0913H186.4V89.5929H182.269Z" fill="#656565" stroke="#161616" stroke-width="2"/>
<path d="M169.77 89.5929V79.0913H173.901V89.5929H169.77Z" fill="#656565" stroke="#161616" stroke-width="2"/>
<path d="M157.267 89.5929V79.0913H161.398V89.5929H157.267Z" fill="#656565" stroke="#161616" stroke-width="2"/>
</g>
<defs>
<clipPath id="clip0_446_78">
<rect width="200" height="200" fill="white"/>
</clipPath>
</defs>
</svg>
